# xmcd
#
# Track frame offsets:
#	150
#	20077
#	42320
#	63825
#	83310
#	102165
#	121920
#	142395
#	160477
#	180147
#
# Disc length: 2676 seconds
# Revision: 2
# Processed by: cddbd v1.5.2PL0 Copyright (c) Steve Scherf et al.
# Submitted via: dBpowerAMP V12.0
#
DISCID=7b0a720a
DTITLE=中森明菜 - Stock [dBP-LITE02-1-FLAC@]
DYEAR=1988
DGENRE=Japanese Pop
TTITLE0=FAREWELL
TTITLE1=夢のふち
TTITLE2=CRYSTAL HEAVEN
TTITLE3=まだ充分じゃない
TTITLE4=FIRE STARTER
TTITLE5=NIGHTMARE
TTITLE6=I WANNA CHANCE
TTITLE7=POISON LIPS
TTITLE8=処女伝説
TTITLE9=FOGGY RELATION
EXTD=
EXTT0=
EXTT1=
EXTT2=
EXTT3=
EXTT4=
EXTT5=
EXTT6=
EXTT7=
EXTT8=
EXTT9=
PLAYORDER=
